<mxfile host="app.diagrams.net" agent="Mozilla/5.0 (Windows NT 10.0; Win64; x64) AppleWebKit/537.36 (KHTML, like Gecko) Chrome/131.0.0.0 Safari/537.36" version="24.9.2">
  <diagram id="6a731a19-8d31-9384-78a2-239565b7b9f0" name="Page-1">
    <mxGraphModel dx="2605" dy="1318" grid="1" gridSize="10" guides="1" tooltips="1" connect="1" arrows="1" fold="1" page="1" pageScale="1" pageWidth="1169" pageHeight="827" background="none" math="0" shadow="0">
      <root>
        <mxCell id="0" />
        <mxCell id="1" parent="0" />
        <mxCell id="t5luededSkzGTPJ_G33P-1801" value="" style="edgeStyle=orthogonalEdgeStyle;rounded=0;orthogonalLoop=1;jettySize=auto;html=1;entryX=0;entryY=0.25;entryDx=0;entryDy=0;" edge="1" parent="1" source="1749" target="t5luededSkzGTPJ_G33P-1785">
          <mxGeometry relative="1" as="geometry">
            <Array as="points">
              <mxPoint x="320" y="1020" />
              <mxPoint x="320" y="1090" />
            </Array>
          </mxGeometry>
        </mxCell>
        <mxCell id="1749" value="PtoM/StoM V.1.0" style="rounded=1;whiteSpace=wrap;html=1;shadow=0;labelBackgroundColor=none;strokeColor=none;strokeWidth=3;fillColor=#2F5B7C;fontFamily=Helvetica;fontSize=16;fontColor=#FFFFFF;align=center;fontStyle=1;spacing=5;arcSize=7;perimeterSpacing=2;" parent="1" vertex="1">
          <mxGeometry x="120" y="1000" width="160" height="40" as="geometry" />
        </mxCell>
        <mxCell id="1750" value="" style="edgeStyle=none;rounded=1;jumpStyle=none;html=1;shadow=0;labelBackgroundColor=none;startArrow=none;startFill=0;jettySize=auto;orthogonalLoop=1;strokeColor=#E85642;strokeWidth=3;fontFamily=Helvetica;fontSize=14;fontColor=#FFFFFF;spacing=5;fontStyle=1;fillColor=#b0e3e6;" parent="1" source="1753" target="1756" edge="1">
          <mxGeometry relative="1" as="geometry" />
        </mxCell>
        <mxCell id="1751" value="" style="edgeStyle=none;rounded=1;jumpStyle=none;html=1;shadow=0;labelBackgroundColor=none;startArrow=none;startFill=0;jettySize=auto;orthogonalLoop=1;strokeColor=#E85642;strokeWidth=3;fontFamily=Helvetica;fontSize=14;fontColor=#FFFFFF;spacing=5;fontStyle=1;fillColor=#b0e3e6;" parent="1" source="1753" target="1755" edge="1">
          <mxGeometry relative="1" as="geometry" />
        </mxCell>
        <mxCell id="1752" value="" style="edgeStyle=none;rounded=1;jumpStyle=none;html=1;shadow=0;labelBackgroundColor=none;startArrow=none;startFill=0;jettySize=auto;orthogonalLoop=1;strokeColor=#E85642;strokeWidth=3;fontFamily=Helvetica;fontSize=14;fontColor=#FFFFFF;spacing=5;fontStyle=1;fillColor=#b0e3e6;" parent="1" source="1753" target="1754" edge="1">
          <mxGeometry relative="1" as="geometry" />
        </mxCell>
        <mxCell id="1753" value="Embassy" style="rounded=1;whiteSpace=wrap;html=1;shadow=0;labelBackgroundColor=none;strokeColor=none;strokeWidth=3;fillColor=#e85642;fontFamily=Helvetica;fontSize=14;fontColor=#FFFFFF;align=center;spacing=5;fontStyle=1;arcSize=7;perimeterSpacing=2;" parent="1" vertex="1">
          <mxGeometry x="215" y="385.5" width="150" height="60" as="geometry" />
        </mxCell>
        <mxCell id="1754" value="Theories" style="rounded=1;whiteSpace=wrap;html=1;shadow=0;labelBackgroundColor=none;strokeColor=none;strokeWidth=3;fillColor=#f08e81;fontFamily=Helvetica;fontSize=14;fontColor=#FFFFFF;align=center;spacing=5;fontStyle=0;arcSize=7;perimeterSpacing=2;" parent="1" vertex="1">
          <mxGeometry x="65" y="504.5" width="150" height="60" as="geometry" />
        </mxCell>
        <mxCell id="1755" value="Appeal" style="rounded=1;whiteSpace=wrap;html=1;shadow=0;labelBackgroundColor=none;strokeColor=none;strokeWidth=3;fillColor=#f08e81;fontFamily=Helvetica;fontSize=14;fontColor=#FFFFFF;align=center;spacing=5;fontStyle=0;arcSize=7;perimeterSpacing=2;" parent="1" vertex="1">
          <mxGeometry x="14" y="385.5" width="150" height="60" as="geometry" />
        </mxCell>
        <mxCell id="1756" value="Layout" style="rounded=1;whiteSpace=wrap;html=1;shadow=0;labelBackgroundColor=none;strokeColor=none;strokeWidth=3;fillColor=#f08e81;fontFamily=Helvetica;fontSize=14;fontColor=#FFFFFF;align=center;spacing=5;fontStyle=0;arcSize=7;perimeterSpacing=2;" parent="1" vertex="1">
          <mxGeometry x="65" y="254.5" width="150" height="60" as="geometry" />
        </mxCell>
        <mxCell id="t5luededSkzGTPJ_G33P-1802" value="" style="edgeStyle=orthogonalEdgeStyle;rounded=0;orthogonalLoop=1;jettySize=auto;html=1;" edge="1" parent="1" source="1760" target="1762">
          <mxGeometry relative="1" as="geometry" />
        </mxCell>
        <mxCell id="1760" value="web 개발 (2주 / 2명)" style="rounded=1;whiteSpace=wrap;html=1;shadow=0;labelBackgroundColor=none;strokeColor=none;strokeWidth=3;fillColor=#1699d3;fontFamily=Helvetica;fontSize=14;fontColor=#FFFFFF;align=center;spacing=5;fontStyle=1;arcSize=7;perimeterSpacing=2;" parent="1" vertex="1">
          <mxGeometry x="360" y="1000" width="160" height="40" as="geometry" />
        </mxCell>
        <mxCell id="1761" value="Content" style="rounded=1;whiteSpace=wrap;html=1;shadow=0;labelBackgroundColor=none;strokeColor=none;strokeWidth=3;fillColor=#64bbe2;fontFamily=Helvetica;fontSize=14;fontColor=#FFFFFF;align=center;spacing=5;arcSize=7;perimeterSpacing=2;" parent="1" vertex="1">
          <mxGeometry x="695" y="650.5" width="150" height="60" as="geometry" />
        </mxCell>
        <mxCell id="1762" value="&lt;span style=&quot;font-weight: 700;&quot;&gt;bug bash (2주 / 2명)&lt;/span&gt;" style="rounded=1;whiteSpace=wrap;html=1;shadow=0;labelBackgroundColor=none;strokeColor=none;strokeWidth=3;fillColor=#64bbe2;fontFamily=Helvetica;fontSize=14;fontColor=#FFFFFF;align=center;spacing=5;arcSize=7;perimeterSpacing=2;" parent="1" vertex="1">
          <mxGeometry x="560" y="1000" width="160" height="40" as="geometry" />
        </mxCell>
        <mxCell id="1763" value="Analysis" style="rounded=1;whiteSpace=wrap;html=1;shadow=0;labelBackgroundColor=none;strokeColor=none;strokeWidth=3;fillColor=#64bbe2;fontFamily=Helvetica;fontSize=14;fontColor=#FFFFFF;align=center;spacing=5;arcSize=7;perimeterSpacing=2;" parent="1" vertex="1">
          <mxGeometry x="295" y="650.5" width="150" height="60" as="geometry" />
        </mxCell>
        <mxCell id="1764" value="Marketing" style="rounded=1;whiteSpace=wrap;html=1;shadow=0;labelBackgroundColor=none;strokeColor=none;strokeWidth=3;fillColor=#F08705;fontFamily=Helvetica;fontSize=14;fontColor=#FFFFFF;align=center;spacing=5;fontStyle=1;arcSize=7;perimeterSpacing=2;" parent="1" vertex="1">
          <mxGeometry x="495" y="200.5" width="150" height="60" as="geometry" />
        </mxCell>
        <mxCell id="1765" value="Aims&lt;br&gt;" style="rounded=1;whiteSpace=wrap;html=1;shadow=0;labelBackgroundColor=none;strokeColor=none;strokeWidth=3;fillColor=#f5af58;fontFamily=Helvetica;fontSize=14;fontColor=#FFFFFF;align=center;spacing=5;arcSize=7;perimeterSpacing=2;" parent="1" vertex="1">
          <mxGeometry x="695" y="110.5" width="150" height="60" as="geometry" />
        </mxCell>
        <mxCell id="1766" value="" style="edgeStyle=none;rounded=0;jumpStyle=none;html=1;shadow=0;labelBackgroundColor=none;startArrow=none;startFill=0;endArrow=classic;endFill=1;jettySize=auto;orthogonalLoop=1;strokeColor=#F08705;strokeWidth=3;fontFamily=Helvetica;fontSize=14;fontColor=#FFFFFF;spacing=5;" parent="1" source="1764" target="1765" edge="1">
          <mxGeometry relative="1" as="geometry" />
        </mxCell>
        <mxCell id="1767" value="Instruments" style="rounded=1;whiteSpace=wrap;html=1;shadow=0;labelBackgroundColor=none;strokeColor=none;strokeWidth=3;fillColor=#f5af58;fontFamily=Helvetica;fontSize=14;fontColor=#FFFFFF;align=center;spacing=5;arcSize=7;perimeterSpacing=2;" parent="1" vertex="1">
          <mxGeometry x="495" y="50.5" width="150" height="60" as="geometry" />
        </mxCell>
        <mxCell id="1768" value="" style="edgeStyle=none;rounded=0;jumpStyle=none;html=1;shadow=0;labelBackgroundColor=none;startArrow=none;startFill=0;endArrow=classic;endFill=1;jettySize=auto;orthogonalLoop=1;strokeColor=#F08705;strokeWidth=3;fontFamily=Helvetica;fontSize=14;fontColor=#FFFFFF;spacing=5;" parent="1" source="1764" target="1767" edge="1">
          <mxGeometry relative="1" as="geometry" />
        </mxCell>
        <mxCell id="1769" value="Segmentation" style="rounded=1;whiteSpace=wrap;html=1;shadow=0;labelBackgroundColor=none;strokeColor=none;strokeWidth=3;fillColor=#f5af58;fontFamily=Helvetica;fontSize=14;fontColor=#FFFFFF;align=center;spacing=5;arcSize=7;perimeterSpacing=2;" parent="1" vertex="1">
          <mxGeometry x="295" y="110.5" width="150" height="60" as="geometry" />
        </mxCell>
        <mxCell id="1770" value="" style="edgeStyle=none;rounded=0;jumpStyle=none;html=1;shadow=0;labelBackgroundColor=none;startArrow=none;startFill=0;endArrow=classic;endFill=1;jettySize=auto;orthogonalLoop=1;strokeColor=#F08705;strokeWidth=3;fontFamily=Helvetica;fontSize=14;fontColor=#FFFFFF;spacing=5;" parent="1" source="1764" target="1769" edge="1">
          <mxGeometry relative="1" as="geometry" />
        </mxCell>
        <mxCell id="1771" value="Communication" style="rounded=1;whiteSpace=wrap;html=1;shadow=0;labelBackgroundColor=none;strokeColor=none;strokeWidth=3;fillColor=#12aab5;fontFamily=Helvetica;fontSize=14;fontColor=#FFFFFF;align=center;spacing=5;fontStyle=1;arcSize=7;perimeterSpacing=2;" parent="1" vertex="1">
          <mxGeometry x="795" y="385.4999999999999" width="150" height="60" as="geometry" />
        </mxCell>
        <mxCell id="1772" value="Events" style="rounded=1;whiteSpace=wrap;html=1;shadow=0;labelBackgroundColor=none;strokeColor=none;strokeWidth=3;fillColor=#61c6ce;fontFamily=Helvetica;fontSize=14;fontColor=#FFFFFF;align=center;spacing=5;fontStyle=0;arcSize=7;perimeterSpacing=2;" parent="1" vertex="1">
          <mxGeometry x="875" y="524.5" width="150" height="60" as="geometry" />
        </mxCell>
        <mxCell id="1773" value="" style="edgeStyle=none;rounded=1;jumpStyle=none;html=1;shadow=0;labelBackgroundColor=none;startArrow=none;startFill=0;jettySize=auto;orthogonalLoop=1;strokeColor=#12AAB5;strokeWidth=3;fontFamily=Helvetica;fontSize=14;fontColor=#FFFFFF;spacing=5;fontStyle=1;fillColor=#b0e3e6;" parent="1" source="1771" target="1772" edge="1">
          <mxGeometry relative="1" as="geometry" />
        </mxCell>
        <mxCell id="1774" value="Media" style="rounded=1;whiteSpace=wrap;html=1;shadow=0;labelBackgroundColor=none;strokeColor=none;strokeWidth=3;fillColor=#61c6ce;fontFamily=Helvetica;fontSize=14;fontColor=#FFFFFF;align=center;spacing=5;fontStyle=0;arcSize=7;perimeterSpacing=2;" parent="1" vertex="1">
          <mxGeometry x="1005" y="434.5" width="150" height="60" as="geometry" />
        </mxCell>
        <mxCell id="1775" value="" style="edgeStyle=none;rounded=1;jumpStyle=none;html=1;shadow=0;labelBackgroundColor=none;startArrow=none;startFill=0;jettySize=auto;orthogonalLoop=1;strokeColor=#12AAB5;strokeWidth=3;fontFamily=Helvetica;fontSize=14;fontColor=#FFFFFF;spacing=5;fontStyle=1;fillColor=#b0e3e6;" parent="1" source="1771" target="1774" edge="1">
          <mxGeometry relative="1" as="geometry" />
        </mxCell>
        <mxCell id="1776" value="Sponsoring" style="rounded=1;whiteSpace=wrap;html=1;shadow=0;labelBackgroundColor=none;strokeColor=none;strokeWidth=3;fillColor=#61c6ce;fontFamily=Helvetica;fontSize=14;fontColor=#FFFFFF;align=center;spacing=5;fontStyle=0;arcSize=7;perimeterSpacing=2;" parent="1" vertex="1">
          <mxGeometry x="1005" y="324.5" width="150" height="60" as="geometry" />
        </mxCell>
        <mxCell id="1777" value="" style="edgeStyle=none;rounded=1;jumpStyle=none;html=1;shadow=0;labelBackgroundColor=none;startArrow=none;startFill=0;jettySize=auto;orthogonalLoop=1;strokeColor=#12AAB5;strokeWidth=3;fontFamily=Helvetica;fontSize=14;fontColor=#FFFFFF;spacing=5;fontStyle=1;fillColor=#b0e3e6;" parent="1" source="1771" target="1776" edge="1">
          <mxGeometry relative="1" as="geometry" />
        </mxCell>
        <mxCell id="1778" value="PR" style="rounded=1;whiteSpace=wrap;html=1;shadow=0;labelBackgroundColor=none;strokeColor=none;strokeWidth=3;fillColor=#61c6ce;fontFamily=Helvetica;fontSize=14;fontColor=#FFFFFF;align=center;spacing=5;fontStyle=0;arcSize=7;perimeterSpacing=2;" parent="1" vertex="1">
          <mxGeometry x="875" y="244.5" width="150" height="60" as="geometry" />
        </mxCell>
        <mxCell id="1779" value="" style="edgeStyle=none;rounded=1;jumpStyle=none;html=1;shadow=0;labelBackgroundColor=none;startArrow=none;startFill=0;jettySize=auto;orthogonalLoop=1;strokeColor=#12AAB5;strokeWidth=3;fontFamily=Helvetica;fontSize=14;fontColor=#FFFFFF;spacing=5;fontStyle=1;fillColor=#b0e3e6;" parent="1" source="1771" target="1778" edge="1">
          <mxGeometry relative="1" as="geometry" />
        </mxCell>
        <mxCell id="t5luededSkzGTPJ_G33P-1779" value="과제 및 중요 이슈" style="text;html=1;align=left;verticalAlign=middle;whiteSpace=wrap;rounded=0;fontStyle=1;fontSize=24;" vertex="1" parent="1">
          <mxGeometry x="120" y="920" width="190" height="30" as="geometry" />
        </mxCell>
        <mxCell id="t5luededSkzGTPJ_G33P-1811" value="" style="edgeStyle=orthogonalEdgeStyle;rounded=0;orthogonalLoop=1;jettySize=auto;html=1;" edge="1" parent="1" source="t5luededSkzGTPJ_G33P-1780" target="t5luededSkzGTPJ_G33P-1793">
          <mxGeometry relative="1" as="geometry" />
        </mxCell>
        <mxCell id="t5luededSkzGTPJ_G33P-1821" style="edgeStyle=orthogonalEdgeStyle;rounded=0;orthogonalLoop=1;jettySize=auto;html=1;exitX=1;exitY=0.25;exitDx=0;exitDy=0;entryX=0;entryY=0.5;entryDx=0;entryDy=0;" edge="1" parent="1" source="t5luededSkzGTPJ_G33P-1780" target="t5luededSkzGTPJ_G33P-1785">
          <mxGeometry relative="1" as="geometry">
            <Array as="points">
              <mxPoint x="300" y="1329" />
              <mxPoint x="300" y="1100" />
            </Array>
          </mxGeometry>
        </mxCell>
        <mxCell id="t5luededSkzGTPJ_G33P-1780" value="PtoM/StoM V.1.1" style="rounded=1;whiteSpace=wrap;html=1;shadow=0;labelBackgroundColor=none;strokeColor=none;strokeWidth=3;fillColor=#2F5B7C;fontFamily=Helvetica;fontSize=16;fontColor=#FFFFFF;align=center;fontStyle=1;spacing=5;arcSize=7;perimeterSpacing=2;" vertex="1" parent="1">
          <mxGeometry x="120" y="1320" width="160" height="40" as="geometry" />
        </mxCell>
        <mxCell id="t5luededSkzGTPJ_G33P-1812" value="" style="edgeStyle=orthogonalEdgeStyle;rounded=0;orthogonalLoop=1;jettySize=auto;html=1;" edge="1" parent="1" source="t5luededSkzGTPJ_G33P-1781" target="t5luededSkzGTPJ_G33P-1795">
          <mxGeometry relative="1" as="geometry" />
        </mxCell>
        <mxCell id="t5luededSkzGTPJ_G33P-1817" style="edgeStyle=orthogonalEdgeStyle;rounded=0;orthogonalLoop=1;jettySize=auto;html=1;exitX=1;exitY=0.75;exitDx=0;exitDy=0;entryX=0;entryY=0.5;entryDx=0;entryDy=0;" edge="1" parent="1" source="t5luededSkzGTPJ_G33P-1781" target="t5luededSkzGTPJ_G33P-1796">
          <mxGeometry relative="1" as="geometry">
            <Array as="points">
              <mxPoint x="320" y="1431" />
              <mxPoint x="320" y="1501" />
            </Array>
          </mxGeometry>
        </mxCell>
        <mxCell id="t5luededSkzGTPJ_G33P-1781" value="CES" style="rounded=1;whiteSpace=wrap;html=1;shadow=0;labelBackgroundColor=none;strokeColor=none;strokeWidth=3;fillColor=#2F5B7C;fontFamily=Helvetica;fontSize=16;fontColor=#FFFFFF;align=center;fontStyle=1;spacing=5;arcSize=7;perimeterSpacing=2;" vertex="1" parent="1">
          <mxGeometry x="120" y="1400" width="160" height="40" as="geometry" />
        </mxCell>
        <mxCell id="t5luededSkzGTPJ_G33P-1816" value="" style="edgeStyle=orthogonalEdgeStyle;rounded=0;orthogonalLoop=1;jettySize=auto;html=1;" edge="1" parent="1" source="t5luededSkzGTPJ_G33P-1782" target="t5luededSkzGTPJ_G33P-1798">
          <mxGeometry relative="1" as="geometry" />
        </mxCell>
        <mxCell id="t5luededSkzGTPJ_G33P-1782" value="iitp 2년차" style="rounded=1;whiteSpace=wrap;html=1;shadow=0;labelBackgroundColor=none;strokeColor=none;strokeWidth=3;fillColor=#2F5B7C;fontFamily=Helvetica;fontSize=16;fontColor=#FFFFFF;align=center;fontStyle=1;spacing=5;arcSize=7;perimeterSpacing=2;" vertex="1" parent="1">
          <mxGeometry x="120" y="1560" width="160" height="40" as="geometry" />
        </mxCell>
        <mxCell id="t5luededSkzGTPJ_G33P-1815" value="" style="edgeStyle=orthogonalEdgeStyle;rounded=0;orthogonalLoop=1;jettySize=auto;html=1;" edge="1" parent="1" source="t5luededSkzGTPJ_G33P-1783" target="t5luededSkzGTPJ_G33P-1799">
          <mxGeometry relative="1" as="geometry" />
        </mxCell>
        <mxCell id="t5luededSkzGTPJ_G33P-1857" style="edgeStyle=orthogonalEdgeStyle;rounded=0;orthogonalLoop=1;jettySize=auto;html=1;exitX=1;exitY=0.75;exitDx=0;exitDy=0;entryX=0;entryY=0.5;entryDx=0;entryDy=0;" edge="1" parent="1" source="t5luededSkzGTPJ_G33P-1783" target="t5luededSkzGTPJ_G33P-1856">
          <mxGeometry relative="1" as="geometry">
            <Array as="points">
              <mxPoint x="320" y="1671" />
              <mxPoint x="320" y="1740" />
            </Array>
          </mxGeometry>
        </mxCell>
        <mxCell id="t5luededSkzGTPJ_G33P-1783" value="cj 납품" style="rounded=1;whiteSpace=wrap;html=1;shadow=0;labelBackgroundColor=none;strokeColor=none;strokeWidth=3;fillColor=#2F5B7C;fontFamily=Helvetica;fontSize=16;fontColor=#FFFFFF;align=center;fontStyle=1;spacing=5;arcSize=7;perimeterSpacing=2;" vertex="1" parent="1">
          <mxGeometry x="120" y="1639.5" width="160" height="40" as="geometry" />
        </mxCell>
        <mxCell id="t5luededSkzGTPJ_G33P-1805" value="" style="edgeStyle=orthogonalEdgeStyle;rounded=0;orthogonalLoop=1;jettySize=auto;html=1;" edge="1" parent="1" source="t5luededSkzGTPJ_G33P-1785" target="t5luededSkzGTPJ_G33P-1786">
          <mxGeometry relative="1" as="geometry" />
        </mxCell>
        <mxCell id="t5luededSkzGTPJ_G33P-1808" style="edgeStyle=orthogonalEdgeStyle;rounded=0;orthogonalLoop=1;jettySize=auto;html=1;exitX=1;exitY=0.75;exitDx=0;exitDy=0;entryX=0;entryY=0.5;entryDx=0;entryDy=0;" edge="1" parent="1" source="t5luededSkzGTPJ_G33P-1785" target="t5luededSkzGTPJ_G33P-1788">
          <mxGeometry relative="1" as="geometry">
            <Array as="points">
              <mxPoint x="540" y="1111" />
              <mxPoint x="540" y="1261" />
            </Array>
          </mxGeometry>
        </mxCell>
        <mxCell id="t5luededSkzGTPJ_G33P-1785" value="향상된 ipsr" style="rounded=1;whiteSpace=wrap;html=1;shadow=0;labelBackgroundColor=none;strokeColor=none;strokeWidth=3;fillColor=#1699d3;fontFamily=Helvetica;fontSize=14;fontColor=#FFFFFF;align=center;spacing=5;fontStyle=1;arcSize=7;perimeterSpacing=2;" vertex="1" parent="1">
          <mxGeometry x="360" y="1080" width="160" height="40" as="geometry" />
        </mxCell>
        <mxCell id="t5luededSkzGTPJ_G33P-1806" value="" style="edgeStyle=orthogonalEdgeStyle;rounded=0;orthogonalLoop=1;jettySize=auto;html=1;" edge="1" parent="1" source="t5luededSkzGTPJ_G33P-1786" target="t5luededSkzGTPJ_G33P-1787">
          <mxGeometry relative="1" as="geometry" />
        </mxCell>
        <mxCell id="t5luededSkzGTPJ_G33P-1807" style="edgeStyle=orthogonalEdgeStyle;rounded=0;orthogonalLoop=1;jettySize=auto;html=1;exitX=1;exitY=0.75;exitDx=0;exitDy=0;entryX=0;entryY=0.5;entryDx=0;entryDy=0;" edge="1" parent="1" source="t5luededSkzGTPJ_G33P-1786" target="t5luededSkzGTPJ_G33P-1792">
          <mxGeometry relative="1" as="geometry">
            <Array as="points">
              <mxPoint x="780" y="1111" />
              <mxPoint x="780" y="1180" />
            </Array>
          </mxGeometry>
        </mxCell>
        <mxCell id="t5luededSkzGTPJ_G33P-1786" value="&lt;b&gt;ml 기반 준비 (2 ~ 4주 / 1명)&lt;/b&gt;" style="rounded=1;whiteSpace=wrap;html=1;shadow=0;labelBackgroundColor=none;strokeColor=none;strokeWidth=3;fillColor=#64bbe2;fontFamily=Helvetica;fontSize=14;fontColor=#FFFFFF;align=center;spacing=5;arcSize=7;perimeterSpacing=2;" vertex="1" parent="1">
          <mxGeometry x="560" y="1080" width="200" height="40" as="geometry" />
        </mxCell>
        <mxCell id="t5luededSkzGTPJ_G33P-1787" value="&lt;b&gt;colorized mesh (1 ~ 2달 / 2명)&lt;/b&gt;" style="rounded=1;whiteSpace=wrap;html=1;shadow=0;labelBackgroundColor=none;strokeColor=none;strokeWidth=3;fillColor=#64bbe2;fontFamily=Helvetica;fontSize=14;fontColor=#FFFFFF;align=center;spacing=5;arcSize=7;perimeterSpacing=2;" vertex="1" parent="1">
          <mxGeometry x="800" y="1080" width="240" height="40" as="geometry" />
        </mxCell>
        <mxCell id="t5luededSkzGTPJ_G33P-1809" style="edgeStyle=orthogonalEdgeStyle;rounded=0;orthogonalLoop=1;jettySize=auto;html=1;" edge="1" parent="1" source="t5luededSkzGTPJ_G33P-1788" target="t5luededSkzGTPJ_G33P-1789">
          <mxGeometry relative="1" as="geometry" />
        </mxCell>
        <mxCell id="t5luededSkzGTPJ_G33P-1788" value="&lt;b&gt;iPSR 공부 (1 ~ 2달 / 2명)&lt;/b&gt;" style="rounded=1;whiteSpace=wrap;html=1;shadow=0;labelBackgroundColor=none;strokeColor=none;strokeWidth=3;fillColor=#64bbe2;fontFamily=Helvetica;fontSize=14;fontColor=#FFFFFF;align=center;spacing=5;arcSize=7;perimeterSpacing=2;" vertex="1" parent="1">
          <mxGeometry x="560" y="1241" width="200" height="40" as="geometry" />
        </mxCell>
        <mxCell id="t5luededSkzGTPJ_G33P-1789" value="&lt;b&gt;추가적인 reconstruction research (1 ~ 2달 / 2명)&lt;/b&gt;" style="rounded=1;whiteSpace=wrap;html=1;shadow=0;labelBackgroundColor=none;strokeColor=none;strokeWidth=3;fillColor=#64bbe2;fontFamily=Helvetica;fontSize=14;fontColor=#FFFFFF;align=center;spacing=5;arcSize=7;perimeterSpacing=2;" vertex="1" parent="1">
          <mxGeometry x="1080" y="1241" width="360" height="40" as="geometry" />
        </mxCell>
        <mxCell id="t5luededSkzGTPJ_G33P-1792" value="&lt;b&gt;island deleter (2 ~ 4주 / 1명)&lt;/b&gt;" style="rounded=1;whiteSpace=wrap;html=1;shadow=0;labelBackgroundColor=none;strokeColor=none;strokeWidth=3;fillColor=#64bbe2;fontFamily=Helvetica;fontSize=14;fontColor=#FFFFFF;align=center;spacing=5;arcSize=7;perimeterSpacing=2;" vertex="1" parent="1">
          <mxGeometry x="800" y="1160" width="240" height="40" as="geometry" />
        </mxCell>
        <mxCell id="t5luededSkzGTPJ_G33P-1810" value="" style="edgeStyle=orthogonalEdgeStyle;rounded=0;orthogonalLoop=1;jettySize=auto;html=1;" edge="1" parent="1" source="t5luededSkzGTPJ_G33P-1793" target="t5luededSkzGTPJ_G33P-1794">
          <mxGeometry relative="1" as="geometry" />
        </mxCell>
        <mxCell id="t5luededSkzGTPJ_G33P-1793" value="web 개발 (2주 / 2명)" style="rounded=1;whiteSpace=wrap;html=1;shadow=0;labelBackgroundColor=none;strokeColor=none;strokeWidth=3;fillColor=#1699d3;fontFamily=Helvetica;fontSize=14;fontColor=#FFFFFF;align=center;spacing=5;fontStyle=1;arcSize=7;perimeterSpacing=2;" vertex="1" parent="1">
          <mxGeometry x="360" y="1320" width="160" height="40" as="geometry" />
        </mxCell>
        <mxCell id="t5luededSkzGTPJ_G33P-1794" value="&lt;span style=&quot;font-weight: 700;&quot;&gt;bug bash (2주 / 2명)&lt;/span&gt;" style="rounded=1;whiteSpace=wrap;html=1;shadow=0;labelBackgroundColor=none;strokeColor=none;strokeWidth=3;fillColor=#64bbe2;fontFamily=Helvetica;fontSize=14;fontColor=#FFFFFF;align=center;spacing=5;arcSize=7;perimeterSpacing=2;" vertex="1" parent="1">
          <mxGeometry x="560" y="1320" width="160" height="40" as="geometry" />
        </mxCell>
        <mxCell id="t5luededSkzGTPJ_G33P-1795" value="grid computing (2 ~ 3주 / 1명)" style="rounded=1;whiteSpace=wrap;html=1;shadow=0;labelBackgroundColor=none;strokeColor=none;strokeWidth=3;fillColor=#1699d3;fontFamily=Helvetica;fontSize=14;fontColor=#FFFFFF;align=center;spacing=5;fontStyle=1;arcSize=7;perimeterSpacing=2;" vertex="1" parent="1">
          <mxGeometry x="360" y="1400" width="240" height="40" as="geometry" />
        </mxCell>
        <mxCell id="t5luededSkzGTPJ_G33P-1813" value="" style="edgeStyle=orthogonalEdgeStyle;rounded=0;orthogonalLoop=1;jettySize=auto;html=1;" edge="1" parent="1" source="t5luededSkzGTPJ_G33P-1796" target="t5luededSkzGTPJ_G33P-1797">
          <mxGeometry relative="1" as="geometry" />
        </mxCell>
        <mxCell id="t5luededSkzGTPJ_G33P-1796" value="홈페이지 개발 (2주 / 2명)" style="rounded=1;whiteSpace=wrap;html=1;shadow=0;labelBackgroundColor=none;strokeColor=none;strokeWidth=3;fillColor=#1699d3;fontFamily=Helvetica;fontSize=14;fontColor=#FFFFFF;align=center;spacing=5;fontStyle=1;arcSize=7;perimeterSpacing=2;" vertex="1" parent="1">
          <mxGeometry x="360" y="1480.5" width="240" height="40" as="geometry" />
        </mxCell>
        <mxCell id="t5luededSkzGTPJ_G33P-1797" value="&lt;span style=&quot;font-weight: 700;&quot;&gt;bug bash (1주 / 2명)&lt;/span&gt;" style="rounded=1;whiteSpace=wrap;html=1;shadow=0;labelBackgroundColor=none;strokeColor=none;strokeWidth=3;fillColor=#64bbe2;fontFamily=Helvetica;fontSize=14;fontColor=#FFFFFF;align=center;spacing=5;arcSize=7;perimeterSpacing=2;" vertex="1" parent="1">
          <mxGeometry x="640" y="1480.5" width="160" height="40" as="geometry" />
        </mxCell>
        <mxCell id="t5luededSkzGTPJ_G33P-1829" value="" style="edgeStyle=orthogonalEdgeStyle;rounded=0;orthogonalLoop=1;jettySize=auto;html=1;" edge="1" parent="1" source="t5luededSkzGTPJ_G33P-1798" target="t5luededSkzGTPJ_G33P-1828">
          <mxGeometry relative="1" as="geometry" />
        </mxCell>
        <mxCell id="t5luededSkzGTPJ_G33P-1798" value="P-Engine V.1.2" style="rounded=1;whiteSpace=wrap;html=1;shadow=0;labelBackgroundColor=none;strokeColor=none;strokeWidth=3;fillColor=#1699d3;fontFamily=Helvetica;fontSize=14;fontColor=#FFFFFF;align=center;spacing=5;fontStyle=1;arcSize=7;perimeterSpacing=2;" vertex="1" parent="1">
          <mxGeometry x="360" y="1560" width="200" height="40" as="geometry" />
        </mxCell>
        <mxCell id="t5luededSkzGTPJ_G33P-1814" value="" style="edgeStyle=orthogonalEdgeStyle;rounded=0;orthogonalLoop=1;jettySize=auto;html=1;" edge="1" parent="1" source="t5luededSkzGTPJ_G33P-1799" target="t5luededSkzGTPJ_G33P-1800">
          <mxGeometry relative="1" as="geometry">
            <Array as="points">
              <mxPoint x="620" y="1660" />
              <mxPoint x="620" y="1660" />
            </Array>
          </mxGeometry>
        </mxCell>
        <mxCell id="t5luededSkzGTPJ_G33P-1799" value="web viewer 개발 (4 ~ 6주 / 2명)" style="rounded=1;whiteSpace=wrap;html=1;shadow=0;labelBackgroundColor=none;strokeColor=none;strokeWidth=3;fillColor=#1699d3;fontFamily=Helvetica;fontSize=14;fontColor=#FFFFFF;align=center;spacing=5;fontStyle=1;arcSize=7;perimeterSpacing=2;" vertex="1" parent="1">
          <mxGeometry x="360" y="1639.5" width="240" height="40" as="geometry" />
        </mxCell>
        <mxCell id="t5luededSkzGTPJ_G33P-1800" value="&lt;span style=&quot;font-weight: 700;&quot;&gt;bug bash (2주 / 2명)&lt;/span&gt;" style="rounded=1;whiteSpace=wrap;html=1;shadow=0;labelBackgroundColor=none;strokeColor=none;strokeWidth=3;fillColor=#64bbe2;fontFamily=Helvetica;fontSize=14;fontColor=#FFFFFF;align=center;spacing=5;arcSize=7;perimeterSpacing=2;" vertex="1" parent="1">
          <mxGeometry x="640" y="1639.5" width="160" height="40" as="geometry" />
        </mxCell>
        <mxCell id="t5luededSkzGTPJ_G33P-1804" value="" style="edgeStyle=orthogonalEdgeStyle;rounded=0;orthogonalLoop=1;jettySize=auto;html=1;entryX=0;entryY=0.5;entryDx=0;entryDy=0;exitX=1;exitY=0.25;exitDx=0;exitDy=0;" edge="1" parent="1" source="1749" target="1760">
          <mxGeometry relative="1" as="geometry">
            <mxPoint x="292" y="1030" as="sourcePoint" />
            <mxPoint x="368" y="1110" as="targetPoint" />
            <Array as="points">
              <mxPoint x="282" y="1010" />
              <mxPoint x="330" y="1010" />
              <mxPoint x="330" y="1020" />
            </Array>
          </mxGeometry>
        </mxCell>
        <mxCell id="t5luededSkzGTPJ_G33P-1818" value="1월 2째주까지 기획 확정 필요" style="text;html=1;align=left;verticalAlign=middle;whiteSpace=wrap;rounded=0;fontStyle=1;fontSize=12;fontColor=#FF1212;" vertex="1" parent="1">
          <mxGeometry x="440" y="1670" width="330" height="30" as="geometry" />
        </mxCell>
        <mxCell id="t5luededSkzGTPJ_G33P-1820" style="edgeStyle=orthogonalEdgeStyle;rounded=0;orthogonalLoop=1;jettySize=auto;html=1;entryX=0;entryY=0.75;entryDx=0;entryDy=0;exitX=1;exitY=0.25;exitDx=0;exitDy=0;" edge="1" parent="1" source="t5luededSkzGTPJ_G33P-1781" target="t5luededSkzGTPJ_G33P-1785">
          <mxGeometry relative="1" as="geometry">
            <Array as="points">
              <mxPoint x="320" y="1409" />
              <mxPoint x="320" y="1111" />
            </Array>
          </mxGeometry>
        </mxCell>
        <mxCell id="t5luededSkzGTPJ_G33P-1819" value="결제 서비스" style="text;html=1;align=left;verticalAlign=middle;whiteSpace=wrap;rounded=0;fontStyle=1;fontSize=12;fontColor=#FF1212;" vertex="1" parent="1">
          <mxGeometry x="120" y="1360" width="330" height="30" as="geometry" />
        </mxCell>
        <mxCell id="t5luededSkzGTPJ_G33P-1828" value="&lt;span style=&quot;font-weight: 700;&quot;&gt;대용량 개발 (4 ~ 6주 / 1명)&lt;/span&gt;" style="rounded=1;whiteSpace=wrap;html=1;shadow=0;labelBackgroundColor=none;strokeColor=none;strokeWidth=3;fillColor=#64bbe2;fontFamily=Helvetica;fontSize=14;fontColor=#FFFFFF;align=center;spacing=5;arcSize=7;perimeterSpacing=2;" vertex="1" parent="1">
          <mxGeometry x="600" y="1560" width="200" height="40" as="geometry" />
        </mxCell>
        <mxCell id="t5luededSkzGTPJ_G33P-1830" value="" style="edgeStyle=orthogonalEdgeStyle;rounded=0;orthogonalLoop=1;jettySize=auto;html=1;" edge="1" parent="1" source="t5luededSkzGTPJ_G33P-1831" target="t5luededSkzGTPJ_G33P-1833">
          <mxGeometry relative="1" as="geometry" />
        </mxCell>
        <mxCell id="t5luededSkzGTPJ_G33P-1837" style="edgeStyle=orthogonalEdgeStyle;rounded=0;orthogonalLoop=1;jettySize=auto;html=1;exitX=1;exitY=0.75;exitDx=0;exitDy=0;entryX=0;entryY=0.5;entryDx=0;entryDy=0;" edge="1" parent="1" source="t5luededSkzGTPJ_G33P-1831" target="t5luededSkzGTPJ_G33P-1836">
          <mxGeometry relative="1" as="geometry">
            <Array as="points">
              <mxPoint x="320" y="1871" />
              <mxPoint x="320" y="1940" />
            </Array>
          </mxGeometry>
        </mxCell>
        <mxCell id="t5luededSkzGTPJ_G33P-1831" value="제품 안정화" style="rounded=1;whiteSpace=wrap;html=1;shadow=0;labelBackgroundColor=none;strokeColor=none;strokeWidth=3;fillColor=#2F5B7C;fontFamily=Helvetica;fontSize=16;fontColor=#FFFFFF;align=center;fontStyle=1;spacing=5;arcSize=7;perimeterSpacing=2;" vertex="1" parent="1">
          <mxGeometry x="120" y="1840" width="160" height="40" as="geometry" />
        </mxCell>
        <mxCell id="t5luededSkzGTPJ_G33P-1832" value="" style="edgeStyle=orthogonalEdgeStyle;rounded=0;orthogonalLoop=1;jettySize=auto;html=1;" edge="1" parent="1" source="t5luededSkzGTPJ_G33P-1833" target="t5luededSkzGTPJ_G33P-1835">
          <mxGeometry relative="1" as="geometry" />
        </mxCell>
        <mxCell id="t5luededSkzGTPJ_G33P-1833" value="P-Engine V.1.3" style="rounded=1;whiteSpace=wrap;html=1;shadow=0;labelBackgroundColor=none;strokeColor=none;strokeWidth=3;fillColor=#1699d3;fontFamily=Helvetica;fontSize=14;fontColor=#FFFFFF;align=center;spacing=5;fontStyle=1;arcSize=7;perimeterSpacing=2;" vertex="1" parent="1">
          <mxGeometry x="360" y="1840" width="200" height="40" as="geometry" />
        </mxCell>
        <mxCell id="t5luededSkzGTPJ_G33P-1835" value="&lt;span style=&quot;font-weight: 700;&quot;&gt;segmentation&lt;/span&gt;" style="rounded=1;whiteSpace=wrap;html=1;shadow=0;labelBackgroundColor=none;strokeColor=none;strokeWidth=3;fillColor=#64bbe2;fontFamily=Helvetica;fontSize=14;fontColor=#FFFFFF;align=center;spacing=5;arcSize=7;perimeterSpacing=2;" vertex="1" parent="1">
          <mxGeometry x="600" y="1840" width="200" height="40" as="geometry" />
        </mxCell>
        <mxCell id="t5luededSkzGTPJ_G33P-1843" value="" style="edgeStyle=orthogonalEdgeStyle;rounded=0;orthogonalLoop=1;jettySize=auto;html=1;entryX=0;entryY=0.5;entryDx=0;entryDy=0;" edge="1" parent="1" source="t5luededSkzGTPJ_G33P-1836" target="t5luededSkzGTPJ_G33P-1841">
          <mxGeometry relative="1" as="geometry" />
        </mxCell>
        <mxCell id="t5luededSkzGTPJ_G33P-1836" value="P-Engine V.1.1" style="rounded=1;whiteSpace=wrap;html=1;shadow=0;labelBackgroundColor=none;strokeColor=none;strokeWidth=3;fillColor=#1699d3;fontFamily=Helvetica;fontSize=14;fontColor=#FFFFFF;align=center;spacing=5;fontStyle=1;arcSize=7;perimeterSpacing=2;" vertex="1" parent="1">
          <mxGeometry x="360" y="1920" width="200" height="40" as="geometry" />
        </mxCell>
        <mxCell id="t5luededSkzGTPJ_G33P-1841" value="&lt;span style=&quot;font-weight: 700;&quot;&gt;bug bash (1주 / 1명)&lt;/span&gt;" style="rounded=1;whiteSpace=wrap;html=1;shadow=0;labelBackgroundColor=none;strokeColor=none;strokeWidth=3;fillColor=#64bbe2;fontFamily=Helvetica;fontSize=14;fontColor=#FFFFFF;align=center;spacing=5;arcSize=7;perimeterSpacing=2;" vertex="1" parent="1">
          <mxGeometry x="600" y="1920" width="160" height="40" as="geometry" />
        </mxCell>
        <mxCell id="t5luededSkzGTPJ_G33P-1872" style="edgeStyle=orthogonalEdgeStyle;rounded=0;orthogonalLoop=1;jettySize=auto;html=1;entryX=0;entryY=0.5;entryDx=0;entryDy=0;exitX=1;exitY=0.5;exitDx=0;exitDy=0;" edge="1" parent="1" source="t5luededSkzGTPJ_G33P-1842">
          <mxGeometry relative="1" as="geometry">
            <mxPoint x="600" y="1555" as="targetPoint" />
            <Array as="points">
              <mxPoint x="740" y="1915" />
              <mxPoint x="740" y="1710" />
              <mxPoint x="580" y="1710" />
              <mxPoint x="580" y="1555" />
            </Array>
          </mxGeometry>
        </mxCell>
        <mxCell id="t5luededSkzGTPJ_G33P-1842" value="현진" style="text;html=1;align=left;verticalAlign=middle;whiteSpace=wrap;rounded=0;fontStyle=1;fontSize=12;fillColor=#f8cecc;strokeColor=#b85450;" vertex="1" parent="1">
          <mxGeometry x="750" y="1900" width="30" height="30" as="geometry" />
        </mxCell>
        <mxCell id="t5luededSkzGTPJ_G33P-1846" value="현준, 서영" style="text;html=1;align=left;verticalAlign=middle;whiteSpace=wrap;rounded=0;fontStyle=1;fontSize=12;fontColor=#FF1212;" vertex="1" parent="1">
          <mxGeometry x="360" y="1460" width="210" height="30" as="geometry" />
        </mxCell>
        <mxCell id="t5luededSkzGTPJ_G33P-1847" value="현준, 서영" style="text;html=1;align=left;verticalAlign=middle;whiteSpace=wrap;rounded=0;fontStyle=1;fontSize=12;fontColor=#FF1212;" vertex="1" parent="1">
          <mxGeometry x="360" y="1300" width="210" height="30" as="geometry" />
        </mxCell>
        <mxCell id="t5luededSkzGTPJ_G33P-1848" value="현준, 서영" style="text;html=1;align=left;verticalAlign=middle;whiteSpace=wrap;rounded=0;fontStyle=1;fontSize=12;fontColor=#FF1212;" vertex="1" parent="1">
          <mxGeometry x="360" y="980" width="210" height="30" as="geometry" />
        </mxCell>
        <mxCell id="t5luededSkzGTPJ_G33P-1849" value="현준, 서영" style="text;html=1;align=left;verticalAlign=middle;whiteSpace=wrap;rounded=0;fontStyle=1;fontSize=12;fontColor=#FF1212;" vertex="1" parent="1">
          <mxGeometry x="560" y="980" width="210" height="30" as="geometry" />
        </mxCell>
        <mxCell id="t5luededSkzGTPJ_G33P-1850" value="현준, 서영" style="text;html=1;align=left;verticalAlign=middle;whiteSpace=wrap;rounded=0;fontStyle=1;fontSize=12;fontColor=#FF1212;" vertex="1" parent="1">
          <mxGeometry x="560" y="1300" width="210" height="30" as="geometry" />
        </mxCell>
        <mxCell id="t5luededSkzGTPJ_G33P-1851" value="준혁, 예찬" style="text;html=1;align=left;verticalAlign=middle;whiteSpace=wrap;rounded=0;fontStyle=1;fontSize=12;fontColor=#FF1212;" vertex="1" parent="1">
          <mxGeometry x="560" y="1220" width="210" height="30" as="geometry" />
        </mxCell>
        <mxCell id="t5luededSkzGTPJ_G33P-1852" value="준혁, 예찬" style="text;html=1;align=left;verticalAlign=middle;whiteSpace=wrap;rounded=0;fontStyle=1;fontSize=12;fontColor=#FF1212;" vertex="1" parent="1">
          <mxGeometry x="1080" y="1220" width="210" height="30" as="geometry" />
        </mxCell>
        <mxCell id="t5luededSkzGTPJ_G33P-1853" value="미정" style="text;html=1;align=left;verticalAlign=middle;whiteSpace=wrap;rounded=0;fontStyle=1;fontSize=12;fontColor=#FF1212;" vertex="1" parent="1">
          <mxGeometry x="800" y="1140" width="210" height="30" as="geometry" />
        </mxCell>
        <mxCell id="t5luededSkzGTPJ_G33P-1855" value="현준, 서영" style="text;html=1;align=left;verticalAlign=middle;whiteSpace=wrap;rounded=0;fontStyle=1;fontSize=12;fontColor=#FF1212;" vertex="1" parent="1">
          <mxGeometry x="640" y="1460" width="210" height="30" as="geometry" />
        </mxCell>
        <mxCell id="t5luededSkzGTPJ_G33P-1856" value="algorithm for cad (4 ~ 6주 / 1명)" style="rounded=1;whiteSpace=wrap;html=1;shadow=0;labelBackgroundColor=none;strokeColor=none;strokeWidth=3;fillColor=#1699d3;fontFamily=Helvetica;fontSize=14;fontColor=#FFFFFF;align=center;spacing=5;fontStyle=1;arcSize=7;perimeterSpacing=2;" vertex="1" parent="1">
          <mxGeometry x="360" y="1720" width="240" height="40" as="geometry" />
        </mxCell>
        <mxCell id="t5luededSkzGTPJ_G33P-1858" value="준혁" style="text;html=1;align=left;verticalAlign=middle;whiteSpace=wrap;rounded=0;fontStyle=1;fontSize=12;fillColor=#f8cecc;strokeColor=#b85450;" vertex="1" parent="1">
          <mxGeometry x="360" y="1700" width="30" height="30" as="geometry" />
        </mxCell>
        <mxCell id="t5luededSkzGTPJ_G33P-1862" value="" style="edgeStyle=orthogonalEdgeStyle;rounded=0;orthogonalLoop=1;jettySize=auto;html=1;" edge="1" parent="1" source="t5luededSkzGTPJ_G33P-1859" target="t5luededSkzGTPJ_G33P-1860">
          <mxGeometry relative="1" as="geometry" />
        </mxCell>
        <mxCell id="t5luededSkzGTPJ_G33P-1859" value="iitp 1년차" style="rounded=1;whiteSpace=wrap;html=1;shadow=0;labelBackgroundColor=none;strokeColor=none;strokeWidth=3;fillColor=#2F5B7C;fontFamily=Helvetica;fontSize=16;fontColor=#FFFFFF;align=center;fontStyle=1;spacing=5;arcSize=7;perimeterSpacing=2;" vertex="1" parent="1">
          <mxGeometry x="120" y="2000" width="160" height="40" as="geometry" />
        </mxCell>
        <mxCell id="t5luededSkzGTPJ_G33P-1860" value="대응 (2 ~ 3일 / 1명)" style="rounded=1;whiteSpace=wrap;html=1;shadow=0;labelBackgroundColor=none;strokeColor=none;strokeWidth=3;fillColor=#1699d3;fontFamily=Helvetica;fontSize=14;fontColor=#FFFFFF;align=center;spacing=5;fontStyle=1;arcSize=7;perimeterSpacing=2;" vertex="1" parent="1">
          <mxGeometry x="360" y="2000" width="200" height="40" as="geometry" />
        </mxCell>
        <mxCell id="t5luededSkzGTPJ_G33P-1865" style="edgeStyle=orthogonalEdgeStyle;rounded=0;orthogonalLoop=1;jettySize=auto;html=1;entryX=0;entryY=0.5;entryDx=0;entryDy=0;" edge="1" parent="1" source="t5luededSkzGTPJ_G33P-1863" target="t5luededSkzGTPJ_G33P-1864">
          <mxGeometry relative="1" as="geometry">
            <Array as="points">
              <mxPoint x="540" y="1995" />
              <mxPoint x="540" y="1915" />
            </Array>
          </mxGeometry>
        </mxCell>
        <mxCell id="t5luededSkzGTPJ_G33P-1863" value="예찬" style="text;html=1;align=left;verticalAlign=middle;whiteSpace=wrap;rounded=0;fontStyle=1;fontSize=12;fillColor=#f8cecc;strokeColor=#b85450;" vertex="1" parent="1">
          <mxGeometry x="360" y="1980" width="30" height="30" as="geometry" />
        </mxCell>
        <mxCell id="t5luededSkzGTPJ_G33P-1864" value="예찬" style="text;html=1;align=left;verticalAlign=middle;whiteSpace=wrap;rounded=0;fontStyle=1;fontSize=12;fillColor=#f8cecc;strokeColor=#b85450;" vertex="1" parent="1">
          <mxGeometry x="600" y="1900" width="30" height="30" as="geometry" />
        </mxCell>
        <mxCell id="t5luededSkzGTPJ_G33P-1866" value="준석" style="text;html=1;align=left;verticalAlign=middle;whiteSpace=wrap;rounded=0;fontStyle=1;fontSize=12;fillColor=#f8cecc;strokeColor=#b85450;" vertex="1" parent="1">
          <mxGeometry x="640" y="1900" width="30" height="30" as="geometry" />
        </mxCell>
        <mxCell id="t5luededSkzGTPJ_G33P-1867" value="준석" style="text;html=1;align=left;verticalAlign=middle;whiteSpace=wrap;rounded=0;fontStyle=1;fontSize=12;fillColor=#f8cecc;strokeColor=#b85450;" vertex="1" parent="1">
          <mxGeometry x="690" y="1820" width="30" height="30" as="geometry" />
        </mxCell>
        <mxCell id="t5luededSkzGTPJ_G33P-1868" value="형주" style="text;html=1;align=left;verticalAlign=middle;whiteSpace=wrap;rounded=0;fontStyle=1;fontSize=12;fillColor=#f8cecc;strokeColor=#b85450;" vertex="1" parent="1">
          <mxGeometry x="600" y="1820" width="30" height="30" as="geometry" />
        </mxCell>
        <mxCell id="t5luededSkzGTPJ_G33P-1870" style="edgeStyle=orthogonalEdgeStyle;rounded=0;orthogonalLoop=1;jettySize=auto;html=1;entryX=0;entryY=0.5;entryDx=0;entryDy=0;" edge="1" parent="1" target="t5luededSkzGTPJ_G33P-1867">
          <mxGeometry relative="1" as="geometry">
            <mxPoint x="670" y="1910" as="sourcePoint" />
            <mxPoint x="880" y="1830" as="targetPoint" />
            <Array as="points">
              <mxPoint x="680" y="1910" />
            </Array>
          </mxGeometry>
        </mxCell>
        <mxCell id="t5luededSkzGTPJ_G33P-1875" value="" style="edgeStyle=orthogonalEdgeStyle;rounded=0;orthogonalLoop=1;jettySize=auto;html=1;entryX=0;entryY=0.25;entryDx=0;entryDy=0;" edge="1" parent="1" source="t5luededSkzGTPJ_G33P-1873" target="t5luededSkzGTPJ_G33P-1874">
          <mxGeometry relative="1" as="geometry">
            <Array as="points">
              <mxPoint x="830" y="1555" />
              <mxPoint x="830" y="1068" />
            </Array>
          </mxGeometry>
        </mxCell>
        <mxCell id="t5luededSkzGTPJ_G33P-1873" value="현진" style="text;html=1;align=left;verticalAlign=middle;whiteSpace=wrap;rounded=0;fontStyle=1;fontSize=12;fillColor=#f8cecc;strokeColor=#b85450;" vertex="1" parent="1">
          <mxGeometry x="600" y="1540" width="30" height="30" as="geometry" />
        </mxCell>
        <mxCell id="t5luededSkzGTPJ_G33P-1874" value="현진" style="text;html=1;align=left;verticalAlign=middle;whiteSpace=wrap;rounded=0;fontStyle=1;fontSize=12;fillColor=#f8cecc;strokeColor=#b85450;" vertex="1" parent="1">
          <mxGeometry x="840" y="1060" width="30" height="30" as="geometry" />
        </mxCell>
        <mxCell id="t5luededSkzGTPJ_G33P-1876" value="송미" style="text;html=1;align=left;verticalAlign=middle;whiteSpace=wrap;rounded=0;fontStyle=1;fontSize=12;fillColor=#f8cecc;strokeColor=#b85450;" vertex="1" parent="1">
          <mxGeometry x="360" y="1624" width="30" height="30" as="geometry" />
        </mxCell>
        <mxCell id="t5luededSkzGTPJ_G33P-1877" value="서영" style="text;html=1;align=left;verticalAlign=middle;whiteSpace=wrap;rounded=0;fontStyle=1;fontSize=12;fillColor=#f8cecc;strokeColor=#b85450;" vertex="1" parent="1">
          <mxGeometry x="360" y="1380" width="30" height="30" as="geometry" />
        </mxCell>
        <mxCell id="t5luededSkzGTPJ_G33P-1878" value="서영" style="text;html=1;align=left;verticalAlign=middle;whiteSpace=wrap;rounded=0;fontStyle=1;fontSize=12;fillColor=#f8cecc;strokeColor=#b85450;" vertex="1" parent="1">
          <mxGeometry x="690" y="1900" width="30" height="30" as="geometry" />
        </mxCell>
        <mxCell id="t5luededSkzGTPJ_G33P-1879" style="edgeStyle=orthogonalEdgeStyle;rounded=0;orthogonalLoop=1;jettySize=auto;html=1;entryX=0;entryY=0.5;entryDx=0;entryDy=0;exitX=1;exitY=0.5;exitDx=0;exitDy=0;" edge="1" parent="1" source="t5luededSkzGTPJ_G33P-1878" target="t5luededSkzGTPJ_G33P-1877">
          <mxGeometry relative="1" as="geometry">
            <mxPoint x="680" y="1920" as="sourcePoint" />
            <mxPoint x="700" y="1845" as="targetPoint" />
            <Array as="points">
              <mxPoint x="730" y="1915" />
              <mxPoint x="730" y="1845" />
              <mxPoint x="330" y="1845" />
              <mxPoint x="330" y="1395" />
            </Array>
          </mxGeometry>
        </mxCell>
        <mxCell id="t5luededSkzGTPJ_G33P-1880" value="" style="edgeStyle=orthogonalEdgeStyle;rounded=0;orthogonalLoop=1;jettySize=auto;html=1;exitX=1;exitY=0.5;exitDx=0;exitDy=0;entryX=0;entryY=0.5;entryDx=0;entryDy=0;" edge="1" parent="1" source="t5luededSkzGTPJ_G33P-1877" target="t5luededSkzGTPJ_G33P-1881">
          <mxGeometry relative="1" as="geometry">
            <mxPoint x="532" y="1350" as="sourcePoint" />
            <mxPoint x="740" y="1160" as="targetPoint" />
            <Array as="points">
              <mxPoint x="550" y="1395" />
              <mxPoint x="550" y="1075" />
            </Array>
          </mxGeometry>
        </mxCell>
        <mxCell id="t5luededSkzGTPJ_G33P-1883" value="" style="edgeStyle=orthogonalEdgeStyle;rounded=0;orthogonalLoop=1;jettySize=auto;html=1;entryX=0;entryY=0.5;entryDx=0;entryDy=0;" edge="1" parent="1" source="t5luededSkzGTPJ_G33P-1881" target="t5luededSkzGTPJ_G33P-1882">
          <mxGeometry relative="1" as="geometry" />
        </mxCell>
        <mxCell id="t5luededSkzGTPJ_G33P-1881" value="서영" style="text;html=1;align=left;verticalAlign=middle;whiteSpace=wrap;rounded=0;fontStyle=1;fontSize=12;fillColor=#f8cecc;strokeColor=#b85450;" vertex="1" parent="1">
          <mxGeometry x="560" y="1060" width="30" height="30" as="geometry" />
        </mxCell>
        <mxCell id="t5luededSkzGTPJ_G33P-1882" value="서영" style="text;html=1;align=left;verticalAlign=middle;whiteSpace=wrap;rounded=0;fontStyle=1;fontSize=12;fillColor=#f8cecc;strokeColor=#b85450;" vertex="1" parent="1">
          <mxGeometry x="800" y="1060" width="30" height="30" as="geometry" />
        </mxCell>
      </root>
    </mxGraphModel>
  </diagram>
</mxfile>
